
<global>
amp_veltrack=0
ampeg_attack=0.01
ampeg_release=0.35
xf_cccurve=gain
xfin_hicc1=127
xfout_hicc1=127
xfout_locc1=127
</global>

<group>
group_label=FF

<region>
hikey=B5
hivel=127
lokey=A#5
loop_end=259181
loop_mode=loop_continuous
loop_start=87584
loop_xfade=32568
lovel=0
pitch_keycenter=A#5
sample=Piccolo_sustain_FF_A#4.opus
</region>

<region>
hikey=B6
hivel=127
lokey=A#6
loop_end=258436
loop_mode=loop_continuous
loop_start=87332
loop_xfade=32474
lovel=0
pitch_keycenter=A#6
sample=Piccolo_sustain_FF_A#5.opus
</region>

<region>
hikey=C#6
hivel=127
lokey=C6
loop_end=261887
loop_mode=loop_continuous
loop_start=88498
loop_xfade=32908
lovel=0
pitch_keycenter=C6
sample=Piccolo_sustain_FF_C5.opus
</region>

<region>
hikey=C#7
hivel=127
lokey=C7
loop_end=236601
loop_mode=loop_continuous
loop_start=79954
loop_xfade=29730
lovel=0
pitch_keycenter=C7
sample=Piccolo_sustain_FF_C6.opus
</region>

<region>
hikey=D#5
hivel=127
lokey=D5
loop_end=260886
loop_mode=loop_continuous
loop_start=88160
loop_xfade=32782
lovel=0
pitch_keycenter=D5
sample=Piccolo_sustain_FF_D4.opus
</region>

<region>
hikey=D#6
hivel=127
lokey=D6
loop_end=262930
loop_mode=loop_continuous
loop_start=88851
loop_xfade=33039
lovel=0
pitch_keycenter=D6
sample=Piccolo_sustain_FF_D5.opus
</region>

<region>
hikey=D#7
hivel=127
lokey=D7
loop_end=258211
loop_mode=loop_continuous
loop_start=87256
loop_xfade=32446
lovel=0
pitch_keycenter=D7
sample=Piccolo_sustain_FF_D6.opus
</region>

<region>
hikey=F5
hivel=127
lokey=E5
loop_end=262257
loop_mode=loop_continuous
loop_start=88624
loop_xfade=32954
lovel=0
pitch_keycenter=E5
sample=Piccolo_sustain_FF_E4.opus
</region>

<region>
hikey=F6
hivel=127
lokey=E6
loop_end=262375
loop_mode=loop_continuous
loop_start=88663
loop_xfade=32969
lovel=0
pitch_keycenter=E6
sample=Piccolo_sustain_FF_E5.opus
</region>

<region>
hikey=F7
hivel=127
lokey=E7
loop_end=252654
loop_mode=loop_continuous
loop_start=85378
loop_xfade=31748
lovel=0
pitch_keycenter=E7
sample=Piccolo_sustain_FF_E6.opus
</region>

<region>
hikey=G5
hivel=127
lokey=F#5
loop_end=250986
loop_mode=loop_continuous
loop_start=84815
loop_xfade=31538
lovel=0
pitch_keycenter=F#5
sample=Piccolo_sustain_FF_F#4.opus
</region>

<region>
hikey=G6
hivel=127
lokey=F#6
loop_end=238852
loop_mode=loop_continuous
loop_start=80714
loop_xfade=30013
lovel=0
pitch_keycenter=F#6
sample=Piccolo_sustain_FF_F#5.opus
</region>

<region>
hikey=G7
hivel=127
lokey=F#7
loop_end=252114
loop_mode=loop_continuous
loop_start=85196
loop_xfade=31680
lovel=0
pitch_keycenter=F#7
sample=Piccolo_sustain_FF_F#6.opus
</region>

<region>
hikey=A5
hivel=127
lokey=G#5
loop_end=251027
loop_mode=loop_continuous
loop_start=84828
loop_xfade=31543
lovel=0
pitch_keycenter=G#5
sample=Piccolo_sustain_FF_G#4.opus
</region>

<region>
hikey=A6
hivel=127
lokey=G#6
loop_end=256821
loop_mode=loop_continuous
loop_start=86786
loop_xfade=32271
lovel=0
pitch_keycenter=G#6
sample=Piccolo_sustain_FF_G#5.opus
</region>

<region>
hikey=C8
hivel=127
lokey=G#7
loop_end=249846
loop_mode=loop_continuous
loop_start=84429
loop_xfade=31395
lovel=0
pitch_keycenter=G#7
sample=Piccolo_sustain_FF_G#6.opus
</region>
</group>